<?xml version="1.0" encoding="UTF-8" standalone="no"?>
<!-- Created with Inkscape (http://www.inkscape.org/) -->

<svg
   xmlns:dc="http://purl.org/dc/elements/1.1/"
   xmlns:cc="http://creativecommons.org/ns#"
   xmlns:rdf="http://www.w3.org/1999/02/22-rdf-syntax-ns#"
   xmlns:svg="http://www.w3.org/2000/svg"
   xmlns="http://www.w3.org/2000/svg"
   xmlns:sodipodi="http://sodipodi.sourceforge.net/DTD/sodipodi-0.dtd"
   xmlns:inkscape="http://www.inkscape.org/namespaces/inkscape"
   width="369.29688"
   height="189.37202"
   id="svg2"
   version="1.1"
   inkscape:version="0.48.3.1 r9886"
   sodipodi:docname="Logo_UPNA.svg">
  <defs
     id="defs4" />
  <sodipodi:namedview
     id="base"
     pagecolor="#ffffff"
     bordercolor="#666666"
     borderopacity="1.0"
     inkscape:pageopacity="0.0"
     inkscape:pageshadow="2"
     inkscape:zoom="2.8284271"
     inkscape:cx="176.66669"
     inkscape:cy="99.70247"
     inkscape:document-units="px"
     inkscape:current-layer="layer1"
     showgrid="false"
     showguides="true"
     inkscape:guide-bbox="true"
     fit-margin-top="10"
     fit-margin-left="10"
     fit-margin-right="10"
     fit-margin-bottom="10"
     inkscape:window-width="1535"
     inkscape:window-height="876"
     inkscape:window-x="65"
     inkscape:window-y="24"
     inkscape:window-maximized="1" />
  <metadata
     id="metadata7">
    <rdf:RDF>
      <cc:Work
         rdf:about="">
        <dc:format>image/svg+xml</dc:format>
        <dc:type
           rdf:resource="http://purl.org/dc/dcmitype/StillImage" />
      </cc:Work>
    </rdf:RDF>
  </metadata>
  <g
     inkscape:label="Layer 1"
     inkscape:groupmode="layer"
     id="layer1"
     transform="translate(-267.14781,-412.68725)">
    <g
       style="font-size:40px;font-style:normal;font-weight:normal;line-height:125%;letter-spacing:0px;word-spacing:0px;fill:#000000;fill-opacity:1;stroke:none;font-family:HelveticaNeue LT 65 Medium;-inkscape-font-specification:HelveticaNeue LT 65 Medium"
       id="text2985">
      <path
         d="m 342.52381,527.0575 -16.128,0 0,-10.368 -0.288,0 c -2.01605,3.744 -5.04005,6.768 -9.072,9.072 -3.93604,2.20799 -7.96804,3.31199 -12.096,3.312 -9.79202,-10e-6 -16.89602,-2.4 -21.312,-7.2 -4.32001,-4.89599 -6.48001,-12.23999 -6.48,-22.032 l 0,-47.232 16.416,0 0,45.648 c -2e-5,6.52802 1.24798,11.13601 3.744,13.824 2.49597,2.68801 5.99997,4.03201 10.512,4.032 3.45596,10e-6 6.33596,-0.52799 8.64,-1.584 2.30395,-1.05599 4.17595,-2.44799 5.616,-4.176 1.43995,-1.82399 2.44795,-3.98398 3.024,-6.48 0.67195,-2.49598 1.00794,-5.18398 1.008,-8.064 l 0,-43.2 16.416,0 0,74.448"
         style="font-size:144px"
         id="path3972" />
      <path
         d="m 360.26731,452.6095 15.552,0 0,10.08 0.288,0 c 2.30398,-4.31994 5.51997,-7.39193 9.648,-9.216 4.12796,-1.91993 8.59196,-2.87993 13.392,-2.88 5.85595,7e-5 10.94394,1.05607 15.264,3.168 4.41593,2.01607 8.06393,4.84806 10.944,8.496 2.87993,3.55206 5.03992,7.72805 6.48,12.528 1.43992,4.80004 2.15992,9.93604 2.16,15.408 -8e-5,4.99203 -0.67208,9.84002 -2.016,14.544 -1.24808,4.70401 -3.21608,8.88001 -5.904,12.528 -2.59207,3.552 -5.90407,6.432 -9.936,8.64 -4.03206,2.11199 -8.78405,3.16799 -14.256,3.168 -2.40005,-10e-6 -4.80004,-0.24001 -7.2,-0.72 -2.40004,-0.38401 -4.70404,-1.05601 -6.912,-2.016 -2.20803,-0.96 -4.27203,-2.16 -6.192,-3.6 -1.82403,-1.536 -3.36002,-3.312 -4.608,-5.328 l -0.288,0 0,37.152 -16.416,0 0,-101.952 m 57.312,37.296 c -6e-5,-3.35996 -0.43206,-6.62396 -1.296,-9.792 -0.86406,-3.16795 -2.16006,-5.95195 -3.888,-8.352 -1.72806,-2.49595 -3.88805,-4.46395 -6.48,-5.904 -2.59205,-1.53594 -5.56805,-2.30394 -8.928,-2.304 -6.91204,6e-5 -12.14403,2.40006 -15.696,7.2 -3.45602,4.80005 -5.18402,11.18404 -5.184,19.152 -2e-5,3.74403 0.43198,7.24803 1.296,10.512 0.95998,3.16802 2.35197,5.90402 4.176,8.208 1.82397,2.30401 3.98397,4.12801 6.48,5.472 2.59196,1.34401 5.56796,2.01601 8.928,2.016 3.74395,10e-6 6.91195,-0.76799 9.504,-2.304 2.59194,-1.53599 4.70394,-3.50399 6.336,-5.904 1.72794,-2.49598 2.92794,-5.27998 3.6,-8.352 0.76794,-3.16797 1.15194,-6.38397 1.152,-9.648"
         style="font-size:144px"
         id="path3974" />
    </g>
    <g
       style="font-size:40px;font-style:normal;font-weight:normal;line-height:125%;letter-spacing:0px;word-spacing:0px;fill:#dc241f;fill-opacity:1;stroke:none;font-family:Sans"
       id="text2989">
      <path
         d="m 447.24937,424.70325 15.552,0 0,10.944 0.28801,0.288 c 2.49597,-4.12794 5.75996,-7.34393 9.79199,-9.648 4.03197,-2.39993 8.49596,-3.59993 13.392,-3.6 8.15995,7e-5 14.59194,2.11207 19.296,6.336 4.70393,4.22406 7.05593,10.56005 7.056,19.008 l 0,51.12 -16.41599,0 0,-46.8 c -0.19206,-5.85595 -1.44006,-10.07995 -3.74401,-12.672 -2.30405,-2.68794 -5.90404,-4.03194 -10.8,-4.032 -2.78404,6e-5 -5.28003,0.52806 -7.488,1.584 -2.20803,0.96006 -4.08003,2.35205 -5.616,4.176 -1.53602,1.72805 -2.73602,3.79205 -3.6,6.192 -0.86402,2.40004 -1.29602,4.94404 -1.296,7.632 l 0,43.92 -16.416,0 0,-74.448"
         style="font-size:144px;font-family:HelveticaNeue LT 65 Medium;-inkscape-font-specification:HelveticaNeue LT 65 Medium;fill:#dc241f;fill-opacity:1"
         id="path3977" />
      <path
         d="m 592.28887,482.59125 c -7e-5,2.01601 0.23993,3.45601 0.72,4.32 0.57593,0.86401 1.63193,1.29601 3.168,1.296 0.47993,1e-5 1.05593,1e-5 1.728,0 0.67193,1e-5 1.43993,-0.096 2.30401,-0.288 l 0,11.376 c -0.57608,0.19199 -1.34408,0.38399 -2.30401,0.576 -0.86407,0.28799 -1.77607,0.52799 -2.736,0.72 -0.96007,0.19199 -1.92007,0.33599 -2.88,0.432 -0.96007,0.096 -1.77606,0.14399 -2.448,0.144 -3.36006,-1e-5 -6.14406,-0.67201 -8.352,-2.016 -2.20805,-1.344 -3.64805,-3.696 -4.32,-7.056 -3.26405,3.168 -7.29604,5.472 -12.096,6.912 -4.70403,1.43999 -9.26403,2.15999 -13.68,2.16 -3.36002,-1e-5 -6.57602,-0.48001 -9.648,-1.44 -3.07201,-0.864 -5.80801,-2.16 -8.208,-3.888 -2.304,-1.824 -4.176,-4.08 -5.61599,-6.768 -1.34401,-2.78399 -2.01601,-5.99999 -2.01601,-9.648 0,-4.60798 0.816,-8.35198 2.44801,-11.232 1.72799,-2.87997 3.93598,-5.13597 6.62399,-6.768 2.78399,-1.63197 5.85599,-2.78396 9.216,-3.456 3.45598,-0.76796 6.91198,-1.34396 10.368,-1.728 2.97597,-0.57596 5.80797,-0.95996 8.496,-1.152 2.68796,-0.28796 5.03996,-0.71996 7.05601,-1.296 2.11194,-0.57596 3.74394,-1.43996 4.89599,-2.592 1.24795,-1.24796 1.87195,-3.07195 1.872,-5.472 -5e-5,-2.11195 -0.52805,-3.83995 -1.584,-5.184 -0.96005,-1.34394 -2.20805,-2.35194 -3.744,-3.024 -1.44004,-0.76794 -3.07204,-1.24794 -4.89599,-1.44 -1.82405,-0.28794 -3.55205,-0.43194 -5.184,-0.432 -4.60804,6e-5 -8.40004,0.96006 -11.37601,2.88 -2.97602,1.92005 -4.65602,4.89605 -5.04,8.928 l -16.41599,0 c 0.28799,-4.79995 1.43999,-8.78394 3.45599,-11.952 2.01599,-3.16794 4.55999,-5.71194 7.63201,-7.632 3.16797,-1.91993 6.71997,-3.26393 10.65599,-4.032 3.93597,-0.76793 7.96797,-1.15193 12.096,-1.152 3.64796,7e-5 7.24796,0.38407 10.80001,1.152 3.55194,0.76807 6.71994,2.01607 9.50399,3.744 2.87994,1.72806 5.18394,3.98406 6.912,6.768 1.72793,2.68806 2.59193,6.00005 2.592,9.936 l 0,38.304 m -16.41599,-20.736 c -2.49606,1.63203 -5.56805,2.64003 -9.216,3.024 -3.64805,0.28803 -7.29604,0.76803 -10.944,1.44 -1.72804,0.28803 -3.40804,0.72003 -5.04001,1.296 -1.63202,0.48003 -3.07202,1.20003 -4.31999,2.16 -1.24803,0.86402 -2.25603,2.06402 -3.024,3.6 -0.67203,1.44002 -1.00803,3.21602 -1.00801,5.328 -2e-5,1.82401 0.52798,3.36001 1.584,4.608 1.05598,1.24801 2.30398,2.25601 3.744,3.024 1.53598,0.67201 3.16798,1.15201 4.89601,1.44 1.82396,0.28801 3.45596,0.43201 4.89599,0.432 1.82397,1e-5 3.79197,-0.23999 5.904,-0.72 2.11196,-0.47999 4.07996,-1.29599 5.904,-2.448 1.91996,-1.15199 3.50395,-2.59199 4.752,-4.32 1.24795,-1.82398 1.87195,-4.03198 1.87201,-6.624 l 0,-12.24"
         style="font-size:144px;font-family:HelveticaNeue LT 65 Medium;-inkscape-font-specification:HelveticaNeue LT 65 Medium;fill:#dc241f;fill-opacity:1"
         id="path3979" />
    </g>
    <text
       xml:space="preserve"
       style="font-size:19px;font-style:normal;font-weight:normal;line-height:125%;letter-spacing:0.01px;word-spacing:0px;fill:#000000;fill-opacity:1;stroke:none;font-family:Sans"
       x="446.57812"
       y="526.94812"
       id="text3836"
       sodipodi:linespacing="125%"><tspan
         sodipodi:role="line"
         id="tspan3838"
         x="446.57812"
         y="526.94812"
         style="font-size:19px;letter-spacing:0.44999999px;fill:#000000;font-family:Times New Roman;-inkscape-font-specification:Times New Roman">Universidad </tspan><tspan
         sodipodi:role="line"
         x="446.57812"
         y="550.69812"
         id="tspan3840"
         style="font-size:19px;letter-spacing:0.41px;fill:#000000;font-family:Times New Roman;-inkscape-font-specification:Times New Roman" /></text>
    <text
       xml:space="preserve"
       style="font-size:40px;font-style:normal;font-weight:normal;line-height:125%;letter-spacing:0px;word-spacing:0px;fill:#000000;fill-opacity:1;stroke:none;font-family:Sans"
       x="446.67548"
       y="545.45782"
       id="text3842"
       sodipodi:linespacing="125%"><tspan
         sodipodi:role="line"
         id="tspan3844"
         x="446.67548"
         y="545.45782"
         style="font-size:19px;letter-spacing:0.44999999px;fill:#000000;font-family:Times New Roman;-inkscape-font-specification:Times New Roman">Pública de Navarra</tspan></text>
    <text
       xml:space="preserve"
       style="font-size:40px;font-style:normal;font-weight:normal;line-height:125%;letter-spacing:0px;word-spacing:0px;fill:#000000;fill-opacity:1;stroke:none;font-family:Sans"
       x="446.65338"
       y="591.76239"
       id="text3842-6"
       sodipodi:linespacing="125%"><tspan
         sodipodi:role="line"
         id="tspan3844-5"
         x="446.65338"
         y="591.76239"
         style="font-size:19px;letter-spacing:0.44999999px;fill:#000000;font-family:Times New Roman;-inkscape-font-specification:Times New Roman">Unibertsitate Publikoa</tspan></text>
    <text
       xml:space="preserve"
       style="font-size:19px;font-style:normal;font-weight:normal;line-height:125%;letter-spacing:0.01px;word-spacing:0px;fill:#000000;fill-opacity:1;stroke:none;font-family:Sans"
       x="447.25"
       y="573.3811"
       id="text3836-8"
       sodipodi:linespacing="125%"><tspan
         sodipodi:role="line"
         id="tspan3838-7"
         x="447.25"
         y="573.3811"
         style="font-size:19px;letter-spacing:0.44999999px;fill:#000000;font-family:Times New Roman;-inkscape-font-specification:Times New Roman">Nafarroako </tspan><tspan
         sodipodi:role="line"
         x="447.25"
         y="597.1311"
         id="tspan3840-7"
         style="font-size:19px;letter-spacing:0.41px;fill:#000000;font-family:Times New Roman;-inkscape-font-specification:Times New Roman" /></text>
  </g>
</svg>
